<svg xmlns="http://www.w3.org/2000/svg" width="214" height="64" fill="none" viewBox="0 0 214 64"><rect width="211.422" height="61.5333" x="1.69319" y="1.23335" fill="#000" rx="7.1"/><rect width="211.422" height="61.5333" x="1.69319" y="1.23335" stroke="#A6A6A6" stroke-width="1.57778" rx="7.1"/><path fill="#fff" d="M169.623 47.778h2.944V28.053h-2.944zm26.518-12.62-3.375 8.552h-.101l-3.503-8.551h-3.171l5.254 11.951-2.996 6.65h3.07l8.096-18.601zm-16.698 10.38c-.962 0-2.308-.483-2.308-1.676 0-1.522 1.676-2.106 3.121-2.106 1.294 0 1.904.279 2.69.66-.229 1.827-1.802 3.122-3.503 3.122m.357-10.81c-2.132 0-4.339.938-5.252 3.02l2.612 1.09c.559-1.09 1.599-1.446 2.69-1.446 1.523 0 3.071.913 3.096 2.538v.202c-.533-.304-1.676-.76-3.07-.76-2.818 0-5.685 1.547-5.685 4.44 0 2.639 2.31 4.34 4.897 4.34 1.979 0 3.072-.889 3.755-1.93h.103v1.524h2.843v-7.563c0-3.502-2.616-5.456-5.989-5.456m-18.195 2.832h-4.187v-6.761h4.187c2.201 0 3.451 1.822 3.451 3.38 0 1.529-1.25 3.38-3.451 3.38m-.076-9.507h-7.054v19.725h2.943v-7.473h4.111c3.263 0 6.471-2.362 6.471-6.126 0-3.763-3.208-6.126-6.471-6.126m-38.468 17.488c-2.034 0-3.736-1.703-3.736-4.041 0-2.365 1.702-4.092 3.736-4.092 2.008 0 3.584 1.727 3.584 4.092 0 2.338-1.576 4.041-3.584 4.041m3.38-9.278h-.101c-.661-.788-1.933-1.5-3.533-1.5-3.356 0-6.431 2.95-6.431 6.737 0 3.761 3.075 6.685 6.431 6.685 1.6 0 2.872-.712 3.533-1.525h.101v.965c0 2.568-1.372 3.94-3.584 3.94-1.804 0-2.922-1.296-3.38-2.389l-2.567 1.068c.737 1.778 2.693 3.965 5.947 3.965 3.458 0 6.381-2.034 6.381-6.99V35.17h-2.797zm4.831 11.515h2.947V28.053h-2.947zm7.294-6.507c-.076-2.593 2.009-3.915 3.508-3.915 1.17 0 2.16.585 2.492 1.424zm9.151-2.238c-.559-1.498-2.262-4.27-5.744-4.27-3.458 0-6.33 2.72-6.33 6.711 0 3.762 2.847 6.71 6.659 6.71 3.076 0 4.856-1.88 5.593-2.973l-2.287-1.526c-.763 1.119-1.805 1.856-3.306 1.856-1.499 0-2.567-.686-3.252-2.034l8.972-3.71zm-71.486-2.21v2.846h6.812c-.203 1.602-.737 2.77-1.55 3.584-.992.991-2.543 2.085-5.262 2.085-4.194 0-7.473-3.38-7.473-7.575 0-4.194 3.279-7.575 7.473-7.575 2.263 0 3.914.89 5.135 2.034l2.008-2.009c-1.703-1.626-3.965-2.872-7.143-2.872-5.745 0-10.575 4.678-10.575 10.422s4.83 10.422 10.575 10.422c3.1 0 5.44-1.017 7.27-2.924 1.88-1.88 2.465-4.524 2.465-6.66 0-.66-.05-1.27-.152-1.778zm17.48 8.718c-2.034 0-3.788-1.677-3.788-4.067 0-2.415 1.754-4.066 3.788-4.066s3.787 1.651 3.787 4.066c0 2.39-1.754 4.067-3.787 4.067m0-10.777c-3.712 0-6.736 2.821-6.736 6.71 0 3.864 3.024 6.71 6.736 6.71s6.736-2.846 6.736-6.71c0-3.889-3.025-6.71-6.736-6.71m14.694 10.777c-2.033 0-3.787-1.677-3.787-4.067 0-2.415 1.754-4.066 3.787-4.066s3.787 1.651 3.787 4.066c0 2.39-1.753 4.067-3.787 4.067m0-10.777c-3.711 0-6.735 2.821-6.735 6.71 0 3.864 3.024 6.71 6.735 6.71s6.736-2.846 6.736-6.71c0-3.889-3.024-6.71-6.736-6.71M71.08 21.325c-1.415 0-2.631-.497-3.612-1.478-.982-.982-1.479-2.21-1.479-3.64 0-1.429.498-2.655 1.479-3.639.98-.981 2.197-1.479 3.612-1.479.72 0 1.393.125 2.036.384.643.26 1.17.62 1.583 1.09l.098.111-1.103 1.104-.11-.136a2.7 2.7 0 0 0-1.068-.79 3.6 3.6 0 0 0-1.436-.278c-.996 0-1.823.338-2.513 1.026-.676.702-1.015 1.556-1.015 2.607s.34 1.907 1.015 2.609c.69.688 1.517 1.028 2.513 1.028q1.368-.002 2.26-.759c.552-.47.883-1.103 1-1.911h-3.418v-1.455h4.896l.02.133c.04.256.07.503.07.74 0 1.357-.415 2.465-1.227 3.28-.916.971-2.121 1.453-3.6 1.453m42.508 0c-1.416 0-2.619-.498-3.587-1.478H110c-.97-.97-1.451-2.2-1.451-3.64s.481-2.668 1.451-3.638l.001-.001c.968-.98 2.171-1.479 3.587-1.479 1.414 0 2.617.498 3.585 1.494.97.97 1.452 2.197 1.452 3.624 0 1.44-.481 2.67-1.451 3.64-.969.98-2.183 1.478-3.586 1.478m-36.28-.212v-9.811h5.86v1.484h-4.324v2.694h3.9v1.455h-3.9v2.697h4.324v1.481zm9.446 0v-8.327h-2.652v-1.484h6.84v1.484H88.29v8.327zm8.561 0v-9.811h1.536v9.811zm5.402 0v-8.327h-2.653v-1.484h6.842v1.484h-2.653v8.327zm19.271 0v-9.811h1.732l4.408 7.056-.038-1.34v-5.716h1.536v9.811h-1.52l-4.62-7.412.038 1.338v6.074zm-6.4-1.27c.997 0 1.81-.34 2.473-1.026l.001-.001.001-.001c.672-.673 1.001-1.539 1.001-2.608 0-1.066-.329-1.935-1.001-2.607l-.001-.001-.001-.001c-.663-.687-1.476-1.025-2.473-1.025-.998 0-1.811.338-2.487 1.024-.66.69-.989 1.544-.989 2.61 0 1.07.329 1.921.989 2.61.676.687 1.489 1.027 2.487 1.027"/><path fill="#EA4335" d="M33.586 31.09 16.788 48.919q0 .006.003.01a4.536 4.536 0 0 0 4.382 3.362 4.5 4.5 0 0 0 2.302-.625l.053-.032 18.908-10.91z"/><path fill="#FBBC04" d="m50.581 28.054-.016-.01-8.163-4.733-9.197 8.183 9.229 9.228 8.12-4.685a4.54 4.54 0 0 0 .027-7.983"/><path fill="#4285F4" d="M16.788 15.08a4.5 4.5 0 0 0-.154 1.168v31.504q0 .609.154 1.167l17.376-17.373z"/><path fill="#34A853" d="m33.71 32 8.695-8.692-18.887-10.95a4.547 4.547 0 0 0-6.73 2.718v.005z"/></svg>