<svg width="214" height="64" viewBox="0 0 214 64" fill="none" xmlns="http://www.w3.org/2000/svg">
<rect x="1.69319" y="1.23335" width="211.422" height="61.5333" rx="7.1" fill="black"/>
<rect x="1.69319" y="1.23335" width="211.422" height="61.5333" rx="7.1" stroke="#A6A6A6" stroke-width="1.57778"/>
<path d="M169.623 47.7778H172.567V28.0531H169.623V47.7778ZM196.141 35.1588L192.766 43.7101H192.665L189.162 35.1588H185.991L191.245 47.1104L188.249 53.7592H191.319L199.415 35.1588H196.141ZM179.443 45.5375C178.481 45.5375 177.135 45.0549 177.135 43.8624C177.135 42.34 178.811 41.7564 180.256 41.7564C181.55 41.7564 182.16 42.035 182.946 42.4159C182.717 44.2433 181.144 45.5375 179.443 45.5375ZM179.8 34.7272C177.668 34.7272 175.461 35.6665 174.548 37.7473L177.16 38.8381C177.719 37.7473 178.759 37.3923 179.85 37.3923C181.373 37.3923 182.921 38.305 182.946 39.9296V40.1324C182.413 39.8279 181.27 39.3713 179.876 39.3713C177.058 39.3713 174.191 40.9187 174.191 43.8118C174.191 46.4509 176.501 48.1513 179.088 48.1513C181.067 48.1513 182.16 47.2631 182.843 46.2223H182.946V47.7458H185.789V40.1829C185.789 36.681 183.173 34.7272 179.8 34.7272ZM161.605 37.5598H157.418V30.7989H161.605C163.806 30.7989 165.056 32.6207 165.056 34.1793C165.056 35.7078 163.806 37.5598 161.605 37.5598ZM161.529 28.0531H154.475V47.7778H157.418V40.305H161.529C164.792 40.305 168 37.9432 168 34.1793C168 30.4161 164.792 28.0531 161.529 28.0531ZM123.061 45.5412C121.027 45.5412 119.325 43.8376 119.325 41.5C119.325 39.1352 121.027 37.4076 123.061 37.4076C125.069 37.4076 126.645 39.1352 126.645 41.5C126.645 43.8376 125.069 45.5412 123.061 45.5412ZM126.441 36.2632H126.34C125.679 35.4754 124.407 34.7637 122.807 34.7637C119.451 34.7637 116.376 37.7127 116.376 41.5C116.376 45.2614 119.451 48.1846 122.807 48.1846C124.407 48.1846 125.679 47.4727 126.34 46.6598H126.441V47.6249C126.441 50.1932 125.069 51.5651 122.857 51.5651C121.053 51.5651 119.935 50.269 119.477 49.1762L116.91 50.2437C117.647 52.0224 119.603 54.2091 122.857 54.2091C126.315 54.2091 129.238 52.1753 129.238 47.2182V35.1704H126.441V36.2632ZM131.272 47.7778H134.219V28.0531H131.272V47.7778ZM138.566 41.2707C138.49 38.6778 140.575 37.3564 142.074 37.3564C143.244 37.3564 144.234 37.9413 144.566 38.7796L138.566 41.2707ZM147.717 39.0335C147.158 37.5346 145.455 34.7637 141.973 34.7637C138.515 34.7637 135.643 37.4834 135.643 41.4741C135.643 45.2362 138.49 48.1846 142.302 48.1846C145.378 48.1846 147.158 46.3042 147.895 45.2108L145.608 43.6854C144.845 44.804 143.803 45.5412 142.302 45.5412C140.803 45.5412 139.735 44.8547 139.05 43.5074L148.022 39.7965L147.717 39.0335ZM76.2311 36.8227V39.6695H83.0432C82.8398 41.2707 82.3061 42.4399 81.4926 43.2534C80.5009 44.2444 78.9503 45.3378 76.2311 45.3378C72.0369 45.3378 68.7582 41.9572 68.7582 37.7632C68.7582 33.5691 72.0369 30.1881 76.2311 30.1881C78.4935 30.1881 80.1453 31.078 81.3656 32.2219L83.3742 30.2134C81.6707 28.5868 79.4088 27.3413 76.2311 27.3413C70.4857 27.3413 65.6562 32.0185 65.6562 37.7632C65.6562 43.5074 70.4857 48.1846 76.2311 48.1846C79.3318 48.1846 81.6707 47.1677 83.5006 45.2614C85.3816 43.3804 85.9665 40.737 85.9665 38.6015C85.9665 37.9413 85.9152 37.3312 85.8136 36.8227H76.2311ZM93.7112 45.5412C91.6773 45.5412 89.9233 43.8635 89.9233 41.4741C89.9233 39.0593 91.6773 37.4076 93.7112 37.4076C95.7443 37.4076 97.4983 39.0593 97.4983 41.4741C97.4983 43.8635 95.7443 45.5412 93.7112 45.5412ZM93.7112 34.7637C89.999 34.7637 86.9747 37.5851 86.9747 41.4741C86.9747 45.3378 89.999 48.1846 93.7112 48.1846C97.422 48.1846 100.447 45.3378 100.447 41.4741C100.447 37.5851 97.422 34.7637 93.7112 34.7637ZM108.405 45.5412C106.372 45.5412 104.618 43.8635 104.618 41.4741C104.618 39.0593 106.372 37.4076 108.405 37.4076C110.439 37.4076 112.192 39.0593 112.192 41.4741C112.192 43.8635 110.439 45.5412 108.405 45.5412ZM108.405 34.7637C104.694 34.7637 101.67 37.5851 101.67 41.4741C101.67 45.3378 104.694 48.1846 108.405 48.1846C112.117 48.1846 115.141 45.3378 115.141 41.4741C115.141 37.5851 112.117 34.7637 108.405 34.7637Z" fill="white"/>
<path d="M71.0801 21.3253C69.6655 21.3253 68.4488 20.8276 67.4678 19.8468C66.4863 18.8653 65.9893 17.6364 65.9893 16.2074C65.9893 14.7784 66.4866 13.5517 67.4678 12.568C68.4488 11.587 69.6655 11.0895 71.0801 11.0895C71.8007 11.0895 72.4733 11.2139 73.1161 11.4731C73.7591 11.7324 74.2851 12.0922 74.6994 12.5631L74.7971 12.6743L73.6936 13.7776L73.5832 13.642C73.3085 13.3044 72.9591 13.0422 72.5164 12.8515C72.0753 12.6614 71.5921 12.5736 71.0801 12.5736C70.0837 12.5736 69.257 12.9119 68.5667 13.5997C68.5665 13.5999 68.5662 13.5999 68.5661 13.6001C67.8914 14.3018 67.5522 15.1561 67.5522 16.2074C67.5522 17.2595 67.8918 18.114 68.5673 18.816C69.2576 19.5035 70.0843 19.8437 71.08 19.8437C71.9921 19.8437 72.7464 19.5891 73.3395 19.085H73.3398C73.8919 18.6159 74.2232 17.9819 74.3404 17.1738H70.9223V15.7193H75.8177L75.8387 15.8524C75.8788 16.1081 75.9071 16.3549 75.9071 16.592C75.9071 17.9491 75.4933 19.057 74.6815 19.872C73.7651 20.8435 72.56 21.3253 71.0801 21.3253L71.0801 21.3253ZM113.588 21.3253C112.172 21.3253 110.969 20.8273 110.001 19.8468C110.001 19.8467 110 19.8466 110 19.8464C110 19.8463 110 19.8463 110 19.8461C109.03 18.8761 108.549 17.6469 108.549 16.2074C108.549 14.7678 109.03 13.5386 110 12.5686C110 12.5685 110 12.5685 110 12.5683L110.001 12.568C110.969 11.5872 112.172 11.0894 113.588 11.0894C115.002 11.0894 116.205 11.5874 117.173 12.5828C118.143 13.5526 118.625 14.7795 118.625 16.2074C118.625 17.6469 118.144 18.8761 117.174 19.8461L117.174 19.8464C116.205 20.8277 114.991 21.3253 113.588 21.3253L113.588 21.3253ZM77.308 21.1133V11.3015H77.4657H83.1679V12.7856H78.8438V15.4801H82.7439V16.9346H78.8438V19.6317H83.1679V21.1133H77.308ZM86.7543 21.1133V12.7856H84.1017V11.3015H90.9428V12.7856H90.785H88.2902V21.1133H86.7543ZM95.315 21.1133V11.3015H96.8508V11.4593V21.1133H95.315ZM100.717 21.1133V12.7856H98.0644V11.3015H104.906V12.7856H104.748H102.253V21.1133H100.717ZM119.988 21.1133V11.3015H121.72L126.128 18.3577L126.09 17.0182V11.3015H127.626V21.1133H126.106L121.486 13.7005L121.524 15.0392V15.0413V21.1133H119.988ZM113.588 19.8437C114.585 19.8437 115.398 19.5039 116.061 18.8172L116.062 18.8159L116.063 18.815C116.735 18.1424 117.064 17.2765 117.064 16.2073C117.064 15.1408 116.735 14.272 116.063 13.5997L116.062 13.5987L116.061 13.5978C115.398 12.9113 114.585 12.5735 113.588 12.5735C112.59 12.5735 111.777 12.9107 111.101 13.5972L111.101 13.5978C110.441 14.2864 110.112 15.1411 110.112 16.2073C110.112 17.2761 110.441 18.128 111.101 18.8168L111.101 18.8174C111.777 19.5041 112.59 19.8436 113.588 19.8436V19.8437Z" fill="white"/>
<path d="M33.5859 31.09L16.7881 48.9189C16.7887 48.9226 16.79 48.9257 16.7906 48.9294C17.3058 50.8652 19.074 52.2908 21.1726 52.2908C22.0115 52.2908 22.7991 52.064 23.4746 51.6658L23.5282 51.6344L42.4363 40.7237L33.5859 31.09Z" fill="#EA4335"/>
<path d="M50.581 28.0541L50.5649 28.0431L42.4018 23.3108L33.2051 31.4944L42.4338 40.7219L50.5538 36.0367C51.9775 35.2682 52.9439 33.7674 52.9439 32.0367C52.9439 30.3185 51.9904 28.8252 50.581 28.0541Z" fill="#FBBC04"/>
<path d="M16.7878 15.0805C16.6869 15.4528 16.6338 15.8429 16.6338 16.2479V47.7523C16.6338 48.1566 16.6862 48.5479 16.7885 48.9189L34.1644 31.5462L16.7878 15.0805Z" fill="#4285F4"/>
<path d="M33.7104 31.9998L42.4049 23.3078L23.5183 12.3577C22.8318 11.9465 22.0306 11.7092 21.1732 11.7092C19.0746 11.7092 17.304 13.1373 16.7887 15.0756C16.7881 15.0775 16.7881 15.0787 16.7881 15.0805L33.7104 31.9998Z" fill="#34A853"/>
</svg>
