<svg aria-hidden="true" style="position: absolute; width: 0; height: 0; overflow: hidden;" version="1.1" xmlns="http://www.w3.org/2000/svg" xmlns:xlink="http://www.w3.org/1999/xlink">
<defs>
<symbol id="icon-Line-2" viewBox="0 0 4608 32">
<path d="M2 6h28v6h-28zM2 14h28v6h-28zM2 22h28v6h-28z"></path>
</symbol>
<symbol id="icon-down_chevron" viewBox="0 0 52 32">
<path d="M41.177 1.412c0.369-0.382 0.81-0.687 1.298-0.896s1.013-0.32 1.544-0.325c0.531-0.005 1.058 0.097 1.55 0.298s0.938 0.498 1.314 0.874c0.376 0.376 0.672 0.822 0.874 1.314s0.302 1.018 0.298 1.549c-0.005 0.531-0.115 1.056-0.325 1.544s-0.514 0.929-0.896 1.298l-20 20c-0.75 0.75-1.767 1.171-2.828 1.171s-2.078-0.421-2.828-1.171l-20.004-20c-0.751-0.75-1.172-1.768-1.173-2.829-0-0.525 0.103-1.046 0.304-1.531s0.495-0.927 0.867-1.298c0.371-0.372 0.812-0.666 1.298-0.868s1.006-0.305 1.531-0.305c1.061-0 2.079 0.421 2.829 1.171l17.176 17.176 17.172-17.172z"></path>
</symbol>
<symbol id="icon-up_chevron" viewBox="0 0 52 32">
<path d="M10.83 27.063c-0.369 0.382-0.81 0.687-1.298 0.896s-1.013 0.32-1.544 0.325-1.058-0.097-1.549-0.298c-0.492-0.201-0.938-0.498-1.314-0.874s-0.673-0.822-0.874-1.314c-0.201-0.492-0.302-1.018-0.298-1.549s0.115-1.056 0.325-1.544c0.21-0.488 0.514-0.929 0.896-1.298l20-20c0.75-0.75 1.767-1.171 2.828-1.171s2.078 0.421 2.828 1.171l20.004 20.004c0.728 0.754 1.132 1.765 1.122 2.814s-0.43 2.052-1.171 2.794-1.745 1.162-2.794 1.171c-1.049 0.009-2.059-0.394-2.814-1.123l-17.176-17.176-17.172 17.172z"></path>
</symbol>
<symbol id="icon-left_chevron" viewBox="0 0 20 32">
<path fill="#0d4e6d" style="fill: var(--color1, #0d4e6d)" d="M16.509 25.484c0.235 0.227 0.423 0.499 0.552 0.799s0.197 0.623 0.2 0.95c0.003 0.327-0.059 0.651-0.183 0.953s-0.307 0.577-0.538 0.809c-0.231 0.231-0.506 0.414-0.808 0.538s-0.627 0.186-0.953 0.183c-0.327-0.003-0.65-0.071-0.95-0.2s-0.572-0.317-0.799-0.552l-12.308-12.308c-0.461-0.462-0.721-1.088-0.721-1.74s0.259-1.279 0.721-1.74l12.31-12.31c0.464-0.448 1.086-0.697 1.731-0.691s1.263 0.265 1.719 0.721c0.456 0.456 0.715 1.074 0.721 1.719s-0.242 1.267-0.691 1.731l-10.57 10.57 10.567 10.567z"></path>
</symbol>
<symbol id="icon-right_chevron" viewBox="0 0 20 32">
<path fill="#0d4e6d" style="fill: var(--color1, #0d4e6d)" d="M3.184 4.347c-0.235-0.227-0.423-0.499-0.552-0.799s-0.197-0.623-0.2-0.95c-0.003-0.327 0.059-0.651 0.183-0.954s0.307-0.577 0.538-0.808c0.231-0.231 0.506-0.414 0.808-0.538s0.627-0.186 0.953-0.183c0.327 0.003 0.65 0.071 0.95 0.2s0.572 0.317 0.799 0.552l12.308 12.308c0.461 0.462 0.721 1.088 0.721 1.74s-0.259 1.279-0.721 1.74l-12.308 12.31c-0.462 0.462-1.088 0.721-1.741 0.722s-1.279-0.259-1.741-0.721c-0.462-0.462-0.722-1.088-0.722-1.741s0.259-1.279 0.72-1.741l10.57-10.57-10.567-10.567z"></path>
</symbol>
<symbol id="icon-menu" viewBox="0 0 32 32">
<path d="M2 6h28v6h-28zM2 14h28v6h-28zM2 22h28v6h-28z"></path>
</symbol>
<symbol id="icon-burger" viewBox="0 0 32 32">
<path fill="#bbe9fc" style="fill: var(--color1, #bbe9fc)" d="M16 0c8.837 0 16 7.163 16 16s-7.163 16-16 16c-8.837 0-16-7.163-16-16s7.163-16 16-16z"></path>
<path fill="none" stroke="#083249" style="stroke: var(--color2, #083249)" stroke-linejoin="miter" stroke-linecap="round" stroke-miterlimit="4" stroke-width="1.2" d="M6.4 9.6h19.2M6.4 16h19.2M6.4 22.4h19.2"></path>
</symbol>
</defs>
</svg>
